<svg width="36" height="36" viewBox="0 0 36 36" fill="none" xmlns="http://www.w3.org/2000/svg">
<path d="M11.3085 33.75C24.8932 33.75 32.3265 22.4934 32.3265 12.7482C32.3265 12.4315 32.3265 12.1148 32.3121 11.7981C33.7527 10.7617 35.006 9.45177 36 7.96912C34.6747 8.5593 33.2485 8.94796 31.7503 9.13509C33.2773 8.22822 34.4442 6.77436 35.006 5.047C33.5798 5.89628 31.9952 6.50086 30.3097 6.83194C28.9556 5.39247 27.0396 4.5 24.922 4.5C20.8451 4.5 17.5318 7.81078 17.5318 11.8845C17.5318 12.4603 17.6038 13.0217 17.7191 13.5687C11.5822 13.2664 6.13686 10.3155 2.4922 5.8531C1.85834 6.9471 1.4982 8.21383 1.4982 9.56693C1.4982 12.1292 2.80912 14.3891 4.78271 15.7135C3.57263 15.6703 2.43457 15.3392 1.44058 14.7922C1.44058 14.821 1.44058 14.8498 1.44058 14.893C1.44058 18.4628 3.9904 21.4569 7.36134 22.1335C6.7419 22.3062 6.09364 22.3926 5.41657 22.3926C4.94118 22.3926 4.48019 22.3494 4.03361 22.263C4.96999 25.1996 7.70708 27.33 10.934 27.3875C8.39856 29.374 5.21489 30.5544 1.7575 30.5544C1.16687 30.5544 0.576231 30.5256 0 30.4536C3.2557 32.5265 7.14526 33.75 11.3085 33.75Z" fill="url(#paint0_linear_468_54)"/>
<defs>
<linearGradient id="paint0_linear_468_54" x1="18" y1="4.5" x2="18" y2="33.75" gradientUnits="userSpaceOnUse">
<stop stop-color="#0679FF"/>
<stop offset="1" stop-color="#159AA3"/>
</linearGradient>
</defs>
</svg>
